<?xml version="1.0" encoding="UTF-8" standalone="no"?><!DOCTYPE svg PUBLIC "-//W3C//DTD SVG 1.1//EN" "http://www.w3.org/Graphics/SVG/1.1/DTD/svg11.dtd"><svg width="100%" height="100%" viewBox="0 0 3471 719" version="1.1" xmlns="http://www.w3.org/2000/svg" xmlns:xlink="http://www.w3.org/1999/xlink" xml:space="preserve" xmlns:serif="http://www.serif.com/" style="fill-rule:evenodd;clip-rule:evenodd;stroke-linejoin:round;stroke-miterlimit:2;"><rect id="Horizontal" x="0" y="0.073" width="3470.19" height="718.5" style="fill:none;"/><path id="Navy" d="M1058.34,379.109c0.357,9.89 2.368,18.307 6.033,25.251c4.061,7.691 9.773,13.469 17.136,17.335c7.364,3.866 15.904,5.798 25.622,5.798c6.566,0 12.533,-0.87 17.901,-2.612c5.37,-1.743 9.987,-4.324 13.85,-7.741c3.866,-3.419 6.807,-7.634 8.826,-12.643l50.877,8.774c-3.388,10.8 -9.263,20.23 -17.625,28.289c-8.362,8.059 -18.839,14.314 -31.432,18.764c-12.59,4.449 -27.022,6.673 -43.294,6.673c-21.409,-0 -39.867,-4.087 -55.374,-12.261c-15.504,-8.174 -27.413,-19.78 -35.728,-34.82c-8.313,-15.039 -12.47,-32.869 -12.47,-53.488c0,-20.117 4.13,-37.764 12.391,-52.942c8.262,-15.178 19.946,-27.018 35.051,-35.519c15.108,-8.502 32.876,-12.753 53.305,-12.753c13.696,0 26.494,2.035 38.393,6.104c11.899,4.068 22.341,10.204 31.326,18.406c8.987,8.203 16.005,18.511 21.055,30.924c5.049,12.411 7.574,26.99 7.574,43.739l-0,14.722l-143.417,0Zm0.257,-33.003l88.996,0c-0.703,-6.547 -2.219,-12.443 -4.548,-17.69c-3.336,-7.514 -8.277,-13.342 -14.824,-17.485c-6.544,-4.144 -14.68,-6.216 -24.408,-6.216c-9.728,-0 -17.98,2.098 -24.757,6.295c-6.775,4.198 -11.931,9.892 -15.468,17.084c-2.676,5.44 -4.34,11.444 -4.991,18.012Zm216.302,-38.019c5.357,-12.314 12.639,-22.139 21.848,-29.476c11.211,-8.931 25.67,-13.397 43.377,-13.397c14.537,0 27.204,2.947 38.003,8.84c10.801,5.893 19.188,14.337 25.162,25.332c5.975,10.996 8.963,24.142 8.963,39.438l0,124.353l-56.259,-0l0,-115.212c0,-12.145 -3.36,-21.67 -10.08,-28.574c-6.719,-6.906 -16.01,-10.359 -27.873,-10.359c-7.913,0 -14.943,1.616 -21.09,4.848c-6.146,3.229 -10.959,7.885 -14.44,13.965c-3.478,6.079 -5.217,13.456 -5.217,22.131l-0,113.201l-56.256,-0l-0,-195.515l53.119,0l0.743,40.425Zm267.519,112.104c3.735,-14.049 7.326,-27.261 10.775,-39.636c5.274,-18.924 10.482,-36.341 15.623,-52.253l43.209,-125.695l63.221,0l-95.804,260.57l-74.817,-0l-97.941,-260.57l63.655,0l44.71,125.695c5.334,15.912 10.753,33.396 16.256,52.452c3.583,12.402 7.287,25.548 11.113,39.437Zm678.394,-41.082c0.357,9.89 2.368,18.307 6.033,25.251c4.061,7.691 9.773,13.469 17.136,17.335c7.363,3.866 15.904,5.798 25.622,5.798c6.566,0 12.533,-0.87 17.901,-2.612c5.37,-1.743 9.987,-4.324 13.85,-7.741c3.865,-3.419 6.807,-7.634 8.826,-12.643l50.877,8.774c-3.388,10.8 -9.263,20.23 -17.625,28.289c-8.362,8.059 -18.839,14.314 -31.432,18.764c-12.59,4.449 -27.022,6.673 -43.294,6.673c-21.41,-0 -39.868,-4.087 -55.374,-12.261c-15.504,-8.174 -27.413,-19.78 -35.728,-34.82c-8.313,-15.039 -12.47,-32.869 -12.47,-53.488c0,-20.117 4.13,-37.764 12.39,-52.942c8.263,-15.178 19.946,-27.018 35.052,-35.519c15.108,-8.502 32.876,-12.753 53.304,-12.753c13.697,0 26.495,2.035 38.394,6.104c11.898,4.068 22.34,10.204 31.326,18.406c8.987,8.203 16.005,18.511 21.054,30.924c5.05,12.411 7.575,26.99 7.575,43.739l-0,14.722l-143.417,0Zm0.256,-33.003l88.997,0c-0.703,-6.547 -2.219,-12.443 -4.549,-17.69c-3.335,-7.514 -8.276,-13.342 -14.823,-17.485c-6.544,-4.144 -14.68,-6.216 -24.408,-6.216c-9.728,-0 -17.98,2.098 -24.757,6.295c-6.775,4.198 -11.931,9.892 -15.468,17.084c-2.676,5.44 -4.34,11.444 -4.992,18.012Zm221.053,31.97l0,85.101l-57.323,-0l0,-260.57l109.048,0c21.22,0 39.27,3.765 54.151,11.294c14.881,7.529 26.236,17.908 34.064,31.139c7.83,13.231 11.745,28.417 11.745,45.559c0,17.205 -3.966,32.372 -11.898,45.498c-7.929,13.127 -19.438,23.406 -34.526,30.836c-15.088,7.429 -33.378,11.143 -54.87,11.143l-50.391,0Zm0,-43.085l41.31,-0c11.651,-0 21.269,-1.888 28.855,-5.665c7.586,-3.778 13.226,-9.005 16.919,-15.681c3.693,-6.679 5.54,-14.361 5.54,-23.046c0,-8.812 -1.847,-16.513 -5.54,-23.103c-3.693,-6.593 -9.348,-11.717 -16.963,-15.373c-7.615,-3.656 -17.277,-5.484 -28.984,-5.484l-41.137,-0l0,88.352Zm633.189,65.452l0,62.734l-56.256,-0l0,-260.57l56.256,0l0,140.22l3.318,0l68.6,-75.165l65.032,0l-78.407,84.855l82.44,110.66l-66.33,-0l-58.463,-79.734l-16.19,17Zm-2439.61,66.231c-24.698,0 -46.903,-5.25 -66.615,-15.75c-19.709,-10.501 -35.28,-25.718 -46.712,-45.648c-11.43,-19.933 -17.145,-44.002 -17.145,-72.209c0,-28.387 5.715,-52.561 17.145,-72.523c11.432,-19.963 27.003,-35.193 46.712,-45.69c19.712,-10.496 41.917,-15.744 66.615,-15.744c24.697,-0 46.868,5.248 66.515,15.744c19.649,10.497 35.192,25.727 46.627,45.69c11.436,19.962 17.154,44.136 17.154,72.523c-0,28.27 -5.718,52.372 -17.154,72.304c-11.435,19.931 -26.978,35.131 -46.627,45.6c-19.647,10.469 -41.818,15.703 -66.515,15.703Zm0,-47.4c14.473,0 27.114,-3.304 37.924,-9.913c10.811,-6.611 19.224,-16.339 25.241,-29.183c6.017,-12.845 9.025,-28.548 9.025,-47.111c0,-18.732 -3.008,-34.536 -9.025,-47.411c-6.017,-12.878 -14.43,-22.621 -25.241,-29.23c-10.81,-6.61 -23.451,-9.916 -37.924,-9.916c-14.463,0 -27.114,3.319 -37.953,9.957c-10.84,6.637 -19.286,16.393 -25.338,29.268c-6.05,12.875 -9.075,28.653 -9.075,47.332c0,18.563 3.025,34.253 9.075,47.07c6.052,12.817 14.498,22.545 25.338,29.183c10.839,6.636 23.49,9.954 37.953,9.954Zm152.698,117.002l-0,-268.614l55.332,0l0,32.91l2.741,0c2.577,-5.199 6.262,-10.529 11.054,-15.99c4.793,-5.461 11.141,-10.055 19.044,-13.78c7.904,-3.725 17.794,-5.588 29.67,-5.588c15.551,0 29.75,3.734 42.596,11.203c12.847,7.469 23.137,18.658 30.872,33.566c7.736,14.908 11.605,33.499 11.605,55.773c-0,21.696 -3.752,40.028 -11.256,54.996c-7.504,14.967 -17.697,26.321 -30.579,34.063c-12.88,7.742 -27.399,11.613 -43.558,11.613c-11.365,0 -20.994,-1.797 -28.887,-5.391c-7.893,-3.594 -14.299,-8.039 -19.217,-13.334c-4.917,-5.296 -8.698,-10.569 -11.344,-15.819l-1.817,0l-0,104.392l-56.256,0Zm100.198,-111.884c9.823,-0 18.063,-2.507 24.719,-7.52c6.655,-5.013 11.696,-11.953 15.122,-20.821c3.427,-8.868 5.141,-19.02 5.141,-30.457c0,-11.447 -1.699,-21.55 -5.097,-30.308c-3.399,-8.761 -8.426,-15.623 -15.081,-20.587c-6.656,-4.966 -14.924,-7.448 -24.804,-7.448c-9.64,-0 -17.824,2.401 -24.552,7.205c-6.729,4.804 -11.84,11.559 -15.334,20.267c-3.494,8.706 -5.241,18.996 -5.241,30.871c0,11.75 1.761,22.03 5.282,30.839c3.524,8.81 8.664,15.672 15.422,20.587c6.757,4.915 14.898,7.372 24.423,7.372Zm870.953,42.605c-21.036,-0 -39.238,-4.213 -54.606,-12.638c-15.365,-8.427 -27.203,-20.202 -35.512,-35.325c-8.309,-15.126 -12.463,-32.715 -12.463,-52.767c-0,-20.215 4.154,-37.898 12.463,-53.049c8.309,-15.15 20.147,-26.938 35.512,-35.363c15.368,-8.427 33.57,-12.641 54.606,-12.641c21.093,0 39.304,4.214 54.632,12.641c15.328,8.425 27.146,20.213 35.453,35.363c8.309,15.151 12.464,32.834 12.464,53.049c-0,20.052 -4.155,37.641 -12.464,52.767c-8.307,15.123 -20.125,26.898 -35.453,35.325c-15.328,8.425 -33.539,12.638 -54.632,12.638Zm-0,-41.282c10.013,-0 18.386,-2.595 25.118,-7.783c6.732,-5.188 11.779,-12.283 15.142,-21.286c3.365,-9.002 5.048,-19.192 5.048,-30.568c-0,-11.493 -1.683,-21.72 -5.048,-30.683c-3.363,-8.962 -8.41,-16.02 -15.142,-21.171c-6.732,-5.152 -15.105,-7.728 -25.118,-7.728c-10.023,0 -18.389,2.576 -25.097,7.728c-6.709,5.151 -11.746,12.195 -15.111,21.13c-3.363,8.935 -5.044,19.177 -5.044,30.724c-0,11.376 1.681,21.566 5.044,30.568c3.365,9.003 8.402,16.098 15.111,21.286c6.708,5.188 15.074,7.783 25.097,7.783Zm122.547,37.462l-0,-195.515l56.256,0l-0,195.515l-56.256,-0Zm28.181,-221c-8.474,-0 -15.733,-2.64 -21.779,-7.919c-6.045,-5.281 -9.067,-11.618 -9.067,-19.01c0,-7.544 3.022,-13.924 9.067,-19.141c6.046,-5.219 13.305,-7.829 21.779,-7.829c8.51,0 15.792,2.606 21.846,7.818c6.056,5.212 9.084,11.594 9.084,19.146c-0,7.402 -3.028,13.741 -9.084,19.019c-6.054,5.277 -13.336,7.916 -21.846,7.916Zm150.49,224.82c-21.037,-0 -39.221,-4.213 -54.553,-12.638c-15.332,-8.427 -27.153,-20.202 -35.462,-35.325c-8.309,-15.126 -12.464,-32.715 -12.464,-52.767c0,-20.215 4.155,-37.898 12.464,-53.049c8.309,-15.15 20.13,-26.938 35.462,-35.363c15.332,-8.427 33.516,-12.641 54.553,-12.641c12.495,0 23.987,1.507 34.477,4.522c10.49,3.015 19.793,7.329 27.911,12.941c8.117,5.613 14.797,12.432 20.038,20.458c5.243,8.027 8.864,17.05 10.863,27.071l-52.311,9.135c-1.162,-5.075 -2.919,-9.632 -5.27,-13.671c-2.349,-4.04 -5.221,-7.495 -8.615,-10.364c-3.392,-2.869 -7.306,-5.054 -11.742,-6.555c-4.436,-1.503 -9.351,-2.255 -14.744,-2.255c-10.021,0 -18.42,2.513 -25.197,7.539c-6.775,5.026 -11.896,12.007 -15.363,20.942c-3.465,8.935 -5.197,19.302 -5.197,31.101c0,11.628 1.732,21.927 5.197,30.899c3.467,8.972 8.588,16.004 15.363,21.097c6.777,5.094 15.176,7.641 25.197,7.641c5.452,-0 10.424,-0.78 14.917,-2.34c4.494,-1.561 8.483,-3.818 11.968,-6.771c3.484,-2.954 6.401,-6.552 8.749,-10.793c2.351,-4.243 4.074,-8.987 5.168,-14.233l52.226,9.041c-1.941,10.318 -5.547,19.549 -10.819,27.691c-5.273,8.141 -11.965,15.104 -20.076,20.887c-8.112,5.782 -17.459,10.194 -28.04,13.237c-10.582,3.042 -22.149,4.563 -34.7,4.563Zm606.213,-0.028c-13.326,0 -25.263,-2.189 -35.811,-6.568c-10.547,-4.381 -18.84,-10.903 -24.88,-19.565c-6.041,-8.664 -9.061,-19.439 -9.061,-32.325c0,-10.941 2.14,-20.067 6.42,-27.377c4.279,-7.31 10.136,-13.197 17.569,-17.66c7.436,-4.463 15.885,-7.859 25.347,-10.187c9.462,-2.328 19.374,-3.949 29.737,-4.863c12.1,-1.137 21.87,-2.208 29.309,-3.214c7.442,-1.005 12.901,-2.577 16.377,-4.716c3.476,-2.139 5.215,-5.315 5.215,-9.528l-0,-0.861c-0,-5.58 -1.272,-10.3 -3.814,-14.16c-2.542,-3.86 -6.255,-6.817 -11.139,-8.872c-4.881,-2.057 -10.882,-3.085 -18.003,-3.085c-7.17,-0 -13.441,1.016 -18.813,3.049c-5.372,2.033 -9.771,4.749 -13.199,8.146c-3.428,3.395 -5.895,7.209 -7.401,11.441l-51.602,-7.984c3.553,-11.388 9.523,-21.047 17.91,-28.978c8.387,-7.932 18.81,-13.989 31.268,-18.171c12.457,-4.185 26.462,-6.277 42.013,-6.277c11.258,0 22.202,1.243 32.832,3.73c10.631,2.486 20.172,6.377 28.624,11.67c8.453,5.292 15.164,12.137 20.131,20.535c4.968,8.396 7.452,18.531 7.452,30.404l-0,131.624l-53.366,-0l-0,-27.147l-1.847,-0c-3.388,6.057 -7.895,11.41 -13.519,16.061c-5.624,4.649 -12.389,8.291 -20.296,10.927c-7.906,2.634 -17.057,3.951 -27.453,3.951Zm15.846,-36.779c8.858,0 16.639,-1.643 23.344,-4.929c6.705,-3.288 11.954,-7.726 15.747,-13.313c3.795,-5.587 5.692,-11.81 5.692,-18.668l0,-21.155c-1.714,1.075 -4.243,2.083 -7.589,3.025c-3.343,0.94 -7.074,1.782 -11.191,2.525c-4.118,0.743 -8.182,1.389 -12.194,1.937c-4.012,0.547 -7.576,1.026 -10.693,1.437c-6.914,0.871 -12.992,2.348 -18.235,4.432c-5.241,2.084 -9.313,4.872 -12.215,8.365c-2.902,3.49 -4.353,7.864 -4.353,13.121c0,5.062 1.369,9.316 4.107,12.761c2.74,3.444 6.483,6.049 11.229,7.815c4.749,1.765 10.199,2.647 16.351,2.647Zm223.146,36.807c-21.036,-0 -39.22,-4.213 -54.553,-12.638c-15.332,-8.427 -27.153,-20.202 -35.462,-35.325c-8.309,-15.126 -12.463,-32.715 -12.463,-52.767c-0,-20.215 4.154,-37.898 12.463,-53.049c8.309,-15.15 20.13,-26.938 35.462,-35.363c15.333,-8.427 33.517,-12.641 54.553,-12.641c12.495,0 23.987,1.507 34.477,4.522c10.49,3.015 19.794,7.329 27.911,12.941c8.118,5.613 14.797,12.432 20.038,20.458c5.243,8.027 8.864,17.05 10.863,27.071l-52.31,9.135c-1.163,-5.075 -2.92,-9.632 -5.271,-13.671c-2.348,-4.04 -5.22,-7.495 -8.614,-10.364c-3.393,-2.869 -7.307,-5.054 -11.743,-6.555c-4.436,-1.503 -9.35,-2.255 -14.744,-2.255c-10.021,0 -18.42,2.513 -25.197,7.539c-6.775,5.026 -11.896,12.007 -15.362,20.942c-3.465,8.935 -5.197,19.302 -5.197,31.101c-0,11.628 1.732,21.927 5.197,30.899c3.466,8.972 8.587,16.004 15.362,21.097c6.777,5.094 15.176,7.641 25.197,7.641c5.452,-0 10.424,-0.78 14.917,-2.34c4.495,-1.561 8.484,-3.818 11.968,-6.771c3.484,-2.954 6.401,-6.552 8.75,-10.793c2.351,-4.243 4.073,-8.987 5.168,-14.233l52.225,9.041c-1.94,10.318 -5.547,19.549 -10.819,27.691c-5.272,8.141 -11.964,15.104 -20.076,20.887c-8.111,5.782 -17.458,10.194 -28.04,13.237c-10.582,3.042 -22.148,4.563 -34.7,4.563Zm400.08,-0c-16.88,-0 -31.83,-2.252 -44.848,-6.755c-13.017,-4.505 -23.641,-11.029 -31.874,-19.573c-8.233,-8.545 -13.566,-18.855 -15.999,-30.929l52.44,-8.396c2.732,9.088 7.53,15.903 14.395,20.444c6.865,4.541 16.044,6.812 27.539,6.812c10.714,0 19.185,-1.907 25.411,-5.722c6.227,-3.814 9.341,-8.643 9.341,-14.485c0,-5.124 -2.212,-9.317 -6.636,-12.577c-4.422,-3.261 -11.25,-5.779 -20.483,-7.553l-36.107,-6.94c-20.228,-3.882 -35.34,-10.445 -45.337,-19.688c-9.998,-9.243 -14.997,-21.184 -14.997,-35.823c0,-12.513 3.664,-23.29 10.993,-32.33c7.328,-9.043 17.581,-16.015 30.76,-20.915c13.179,-4.902 28.594,-7.353 46.246,-7.353c16.612,0 30.982,2.137 43.109,6.41c12.128,4.274 21.923,10.3 29.386,18.079c7.465,7.776 12.491,16.994 15.078,27.652l-49.928,8.195c-2.202,-6.68 -6.328,-12.137 -12.378,-16.37c-6.048,-4.234 -14.172,-6.351 -24.37,-6.351c-9.265,0 -17.026,1.817 -23.283,5.449c-6.257,3.632 -9.386,8.427 -9.386,14.384c0,4.898 2.021,9.046 6.062,12.443c4.041,3.396 11.008,6.057 20.9,7.982l37.68,6.995c20.294,3.82 35.394,10.084 45.3,18.791c9.907,8.708 14.861,20.049 14.861,34.023c-0,12.811 -4.011,24.023 -12.033,33.634c-8.022,9.611 -19.082,17.091 -33.181,22.442c-14.097,5.35 -30.318,8.025 -48.661,8.025Zm-2957.76,-352.191c-6.086,-1.524 -9.7,-7.367 -8.066,-13.041c1.635,-5.673 7.903,-9.043 13.989,-7.519c78.678,19.697 125.4,95.234 104.27,168.577c-1.634,5.674 -7.902,9.043 -13.989,7.519c-6.086,-1.524 -9.7,-7.367 -8.066,-13.04c17.861,-61.997 -21.633,-125.847 -88.138,-142.496Zm-11.414,39.621c-6.087,-1.523 -9.701,-7.367 -8.066,-13.04c1.634,-5.674 7.902,-9.043 13.989,-7.519c55.219,13.824 88.011,66.839 73.181,118.314c-1.634,5.674 -7.903,9.043 -13.989,7.519c-6.086,-1.523 -9.7,-7.366 -8.066,-13.04c11.561,-40.128 -14.002,-81.457 -57.049,-92.234Zm36.029,86.972c-1.635,5.673 -7.903,9.042 -13.989,7.519c-6.087,-1.524 -9.701,-7.367 -8.066,-13.041c5.176,-17.966 -6.269,-36.47 -25.543,-41.295c-6.086,-1.524 -9.7,-7.367 -8.066,-13.04c1.635,-5.674 7.903,-9.043 13.989,-7.52c31.446,7.873 50.12,38.063 41.675,67.377Zm-206.977,-38.374l104.167,0c33.636,0 60.944,25.457 60.944,56.813c0,-0 0.431,164.788 0,210.3c-0.34,36.047 -38.92,49.311 -60.944,56.813c-28.233,9.616 -60.549,9.323 -60.549,9.323c0,0 -32.149,0.368 -61.341,-9.323c-22.197,-7.369 -60.604,-19.452 -60.944,-56.813c-0.416,-45.513 -0,-210.3 -0,-210.3c-0,-23.677 15.571,-43.991 37.68,-52.52l6.451,-133.199c0.022,-17.48 28.14,-17.692 28.118,-0.328l6.418,129.234Zm113.901,274.181c6.132,-4.816 7.205,-13.241 2.455,-19.262c-4.75,-6.022 -13.697,-7.576 -20.456,-3.555c0,0 -18.423,10.353 -52.339,9.649c-34.683,-0.72 -52.805,-9.978 -52.805,-9.978c-6.832,-3.675 -15.543,-1.878 -20.074,4.141c-4.53,6.019 -3.378,14.267 2.654,19.005c0,-0 29.643,23.382 70.282,23.382c40.64,-0 70.283,-23.382 70.283,-23.382Zm-17.391,-115.792c0.369,-0.557 0.033,-1.729 -0.548,-1.677c-0.504,0.044 -1.005,0.099 -1.502,0.165c-16.011,2.112 -28.342,14.952 -28.342,30.456c0,16.977 14.786,30.76 32.998,30.76c18.212,0 32.998,-13.783 32.998,-30.76c-0,-6.296 -2.034,-12.152 -5.521,-17.029c-0.36,-0.504 -1.493,-0.697 -1.996,0.08c-1.271,1.962 -2.95,4.154 -3.593,4.99c-2.762,3.591 -7.278,5.933 -12.375,5.933c-8.399,-0 -15.218,-6.357 -15.218,-14.186c-0,-2.458 0.672,-4.77 1.854,-6.787c0.213,-0.364 0.675,-1.084 1.245,-1.945Zm35.604,-97.748c-3.414,-9.545 -12.654,-18.171 -22.897,-21.344c-14.815,-4.589 -43.997,-6.19 -65.995,-6.19c-21.999,-0 -51.18,1.601 -65.995,6.19c-10.243,3.173 -19.484,11.799 -22.897,21.344c-3.816,10.672 0,42.688 0,42.688c0,11.78 10.26,21.344 22.897,21.344c-0,-0 43.996,-5.502 65.995,-5.502c21.998,-0 65.995,5.502 65.995,5.502c12.637,-0 22.897,-9.564 22.897,-21.344c-0,-0 3.816,-32.016 -0,-42.688Zm-147.032,97.499c0.338,-0.502 -0.212,-1.489 -0.836,-1.435c-16.769,1.451 -29.916,14.62 -29.916,30.628c0,16.977 14.786,30.76 32.998,30.76c18.212,0 32.998,-13.783 32.998,-30.76c-0,-6.394 -2.098,-12.335 -5.685,-17.257c-0.277,-0.379 -1.369,-0.303 -1.683,0.175c-1.581,2.409 -3.982,5.793 -5.07,6.823c-2.763,2.619 -6.607,4.244 -10.856,4.244c-8.405,0 -15.229,-6.361 -15.229,-14.197c-0,-2.502 0.695,-4.854 1.916,-6.896c0.248,-0.415 0.768,-1.202 1.363,-2.085Z" style="fill:#1e293b;"/></svg>