<?xml version="1.0" encoding="UTF-8" standalone="no"?><!DOCTYPE svg PUBLIC "-//W3C//DTD SVG 1.1//EN" "http://www.w3.org/Graphics/SVG/1.1/DTD/svg11.dtd"><svg width="100%" height="100%" viewBox="0 0 3471 719" version="1.1" xmlns="http://www.w3.org/2000/svg" xmlns:xlink="http://www.w3.org/1999/xlink" xml:space="preserve" xmlns:serif="http://www.serif.com/" style="fill-rule:evenodd;clip-rule:evenodd;stroke-linejoin:round;stroke-miterlimit:2;"><rect id="Horizontal" x="0" y="0" width="3470.19" height="718.5" style="fill:none;"/><g id="Coral"><g id="Text" transform="matrix(1,0,0,0.932198,0,-644.591)"><g transform="matrix(384.201,0,0,384.201,487.605,1188.26)"><path d="M0.385,0.01c-0.064,-0 -0.122,-0.015 -0.173,-0.044c-0.051,-0.03 -0.092,-0.072 -0.122,-0.128c-0.029,-0.055 -0.044,-0.123 -0.044,-0.201c-0,-0.08 0.015,-0.147 0.044,-0.203c0.03,-0.056 0.071,-0.098 0.122,-0.127c0.051,-0.03 0.109,-0.044 0.173,-0.044c0.065,-0 0.122,0.014 0.174,0.044c0.051,0.029 0.091,0.071 0.121,0.127c0.03,0.056 0.045,0.123 0.045,0.203c-0,0.079 -0.015,0.146 -0.045,0.202c-0.03,0.055 -0.07,0.098 -0.121,0.127c-0.052,0.029 -0.109,0.044 -0.174,0.044Zm0,-0.133c0.038,0 0.071,-0.009 0.099,-0.027c0.028,-0.019 0.05,-0.046 0.066,-0.082c0.016,-0.036 0.023,-0.079 0.023,-0.131c0,-0.053 -0.007,-0.097 -0.023,-0.133c-0.016,-0.036 -0.038,-0.063 -0.066,-0.081c-0.028,-0.019 -0.061,-0.028 -0.099,-0.028c-0.037,0 -0.07,0.009 -0.098,0.028c-0.029,0.018 -0.051,0.046 -0.066,0.082c-0.016,0.036 -0.024,0.08 -0.024,0.132c0,0.052 0.008,0.095 0.024,0.131c0.015,0.036 0.037,0.063 0.066,0.082c0.028,0.018 0.061,0.027 0.098,0.027Z" style="fill:#f04e4e;fill-rule:nonzero;"/></g><g transform="matrix(384.201,0,0,384.201,764.425,1188.26)"><path d="M0.062,0.204l0,-0.75l0.144,0l0,0.092l0.008,-0c0.006,-0.015 0.016,-0.029 0.028,-0.045c0.013,-0.015 0.029,-0.028 0.05,-0.038c0.02,-0.011 0.046,-0.016 0.077,-0.016c0.041,0 0.078,0.011 0.111,0.032c0.033,0.02 0.06,0.052 0.08,0.093c0.02,0.042 0.031,0.094 0.031,0.156c-0,0.061 -0.01,0.112 -0.03,0.154c-0.019,0.041 -0.046,0.073 -0.079,0.095c-0.034,0.021 -0.072,0.032 -0.114,0.032c-0.029,0 -0.054,-0.005 -0.075,-0.015c-0.02,-0.01 -0.037,-0.022 -0.05,-0.037c-0.013,-0.015 -0.023,-0.03 -0.029,-0.044l-0.005,-0l-0,0.291l-0.147,0Zm0.261,-0.312c0.026,-0 0.047,-0.007 0.065,-0.021c0.017,-0.014 0.03,-0.034 0.039,-0.058c0.009,-0.025 0.013,-0.054 0.013,-0.085c0,-0.032 -0.004,-0.061 -0.013,-0.085c-0.009,-0.025 -0.022,-0.044 -0.039,-0.058c-0.018,-0.013 -0.039,-0.02 -0.065,-0.02c-0.025,-0 -0.046,0.006 -0.064,0.02c-0.017,0.013 -0.031,0.032 -0.04,0.056c-0.009,0.025 -0.013,0.053 -0.013,0.087c-0,0.032 0.004,0.061 0.013,0.086c0.01,0.024 0.023,0.043 0.041,0.057c0.017,0.014 0.038,0.021 0.063,0.021Z" style="fill:#f04e4e;fill-rule:nonzero;"/></g><g transform="matrix(384.201,0,0,384.201,987.404,1188.26)"><path d="M0.309,0.011c-0.055,-0 -0.103,-0.012 -0.144,-0.035c-0.04,-0.022 -0.071,-0.055 -0.093,-0.097c-0.021,-0.042 -0.032,-0.092 -0.032,-0.149c-0,-0.056 0.01,-0.106 0.032,-0.148c0.021,-0.042 0.052,-0.075 0.091,-0.099c0.04,-0.024 0.086,-0.036 0.139,-0.036c0.036,0 0.069,0.006 0.1,0.017c0.031,0.012 0.058,0.029 0.081,0.052c0.024,0.023 0.042,0.051 0.055,0.086c0.013,0.035 0.02,0.075 0.02,0.122l-0,0.041l-0.458,0l-0,-0.092l0.387,0l-0.069,0.025c0,-0.029 -0.004,-0.053 -0.013,-0.074c-0.009,-0.021 -0.021,-0.038 -0.038,-0.049c-0.018,-0.012 -0.039,-0.017 -0.064,-0.017c-0.025,-0 -0.047,0.005 -0.064,0.017c-0.018,0.012 -0.032,0.028 -0.041,0.048c-0.009,0.02 -0.014,0.043 -0.014,0.068l0,0.065c0,0.032 0.006,0.058 0.016,0.08c0.011,0.021 0.026,0.037 0.045,0.048c0.019,0.011 0.041,0.016 0.067,0.016c0.017,0 0.032,-0.002 0.046,-0.007c0.014,-0.005 0.026,-0.012 0.036,-0.022c0.01,-0.009 0.018,-0.021 0.023,-0.035l0.133,0.025c-0.009,0.03 -0.024,0.056 -0.046,0.079c-0.022,0.022 -0.049,0.04 -0.082,0.052c-0.033,0.012 -0.07,0.019 -0.113,0.019Z" style="fill:#f04e4e;fill-rule:nonzero;"/></g><g transform="matrix(384.201,0,0,384.201,1197.06,1188.26)"><path d="M0.209,-0.316l-0,0.316l-0.147,-0l0,-0.546l0.139,0l0.002,0.136l-0.009,0c0.015,-0.045 0.036,-0.08 0.065,-0.105c0.03,-0.025 0.067,-0.038 0.113,-0.038c0.038,0 0.071,0.008 0.099,0.025c0.028,0.016 0.05,0.04 0.066,0.071c0.015,0.03 0.023,0.067 0.023,0.11l0,0.347l-0.146,-0l-0,-0.322c-0,-0.034 -0.009,-0.06 -0.027,-0.079c-0.017,-0.02 -0.041,-0.029 -0.072,-0.029c-0.021,-0 -0.039,0.004 -0.055,0.013c-0.016,0.009 -0.029,0.022 -0.038,0.039c-0.009,0.017 -0.013,0.038 -0.013,0.062Z" style="fill:#f04e4e;fill-rule:nonzero;"/></g><g transform="matrix(384.201,0,0,384.201,1397.53,1188.26)"><path d="M0.279,-0l-0.255,-0.728l0.165,0l0.117,0.351c0.014,0.045 0.028,0.094 0.042,0.147c0.015,0.053 0.03,0.111 0.045,0.174l-0.032,0c0.016,-0.064 0.03,-0.122 0.044,-0.175c0.014,-0.053 0.027,-0.101 0.041,-0.146l0.112,-0.351l0.165,0l-0.25,0.728l-0.194,-0Z" style="fill:#f04e4e;fill-rule:nonzero;"/></g><g transform="matrix(384.201,0,0,384.201,1641.71,1188.26)"><path d="M0.307,0.011c-0.055,-0 -0.102,-0.012 -0.142,-0.036c-0.04,-0.023 -0.071,-0.056 -0.093,-0.098c-0.021,-0.042 -0.032,-0.092 -0.032,-0.148c-0,-0.056 0.011,-0.105 0.032,-0.148c0.022,-0.042 0.053,-0.075 0.093,-0.098c0.04,-0.024 0.087,-0.036 0.142,-0.036c0.055,0 0.102,0.012 0.142,0.036c0.04,0.023 0.071,0.056 0.092,0.098c0.022,0.043 0.033,0.092 0.033,0.148c-0,0.056 -0.011,0.106 -0.033,0.148c-0.021,0.042 -0.052,0.075 -0.092,0.098c-0.04,0.024 -0.087,0.036 -0.142,0.036Zm-0,-0.116c0.026,0 0.048,-0.007 0.065,-0.021c0.018,-0.015 0.031,-0.035 0.039,-0.06c0.009,-0.025 0.014,-0.053 0.014,-0.085c-0,-0.032 -0.005,-0.061 -0.014,-0.086c-0.008,-0.025 -0.021,-0.045 -0.039,-0.059c-0.017,-0.014 -0.039,-0.021 -0.065,-0.021c-0.026,-0 -0.048,0.007 -0.066,0.021c-0.017,0.014 -0.03,0.034 -0.039,0.059c-0.009,0.025 -0.013,0.054 -0.013,0.086c-0,0.032 0.004,0.06 0.013,0.085c0.009,0.025 0.022,0.045 0.039,0.06c0.018,0.014 0.04,0.021 0.066,0.021Z" style="fill:#f04e4e;fill-rule:nonzero;"/></g><g transform="matrix(384.201,0,0,384.201,1858.12,1188.26)"><path d="M0.062,-0l0,-0.546l0.147,0l-0,0.546l-0.147,-0Zm0.074,-0.617c-0.022,-0 -0.041,-0.007 -0.057,-0.022c-0.016,-0.015 -0.024,-0.033 -0.024,-0.053c0,-0.021 0.008,-0.039 0.024,-0.054c0.016,-0.014 0.035,-0.022 0.057,-0.022c0.022,0 0.041,0.008 0.057,0.022c0.015,0.015 0.023,0.033 0.023,0.054c0,0.02 -0.008,0.038 -0.023,0.053c-0.016,0.015 -0.035,0.022 -0.057,0.022Z" style="fill:#f04e4e;fill-rule:nonzero;"/></g><g transform="matrix(384.201,0,0,384.201,1943.03,1188.26)"><path d="M0.306,0.011c-0.054,-0 -0.102,-0.012 -0.142,-0.036c-0.039,-0.023 -0.07,-0.056 -0.092,-0.098c-0.021,-0.042 -0.032,-0.092 -0.032,-0.148c-0,-0.056 0.011,-0.105 0.032,-0.148c0.022,-0.042 0.053,-0.075 0.092,-0.098c0.04,-0.024 0.088,-0.036 0.142,-0.036c0.033,0 0.063,0.004 0.09,0.013c0.027,0.008 0.052,0.02 0.073,0.036c0.021,0.016 0.038,0.035 0.052,0.057c0.014,0.023 0.023,0.048 0.028,0.076l-0.136,0.025c-0.003,-0.014 -0.008,-0.027 -0.014,-0.038c-0.006,-0.011 -0.013,-0.021 -0.022,-0.029c-0.009,-0.008 -0.019,-0.014 -0.031,-0.018c-0.011,-0.004 -0.024,-0.006 -0.038,-0.006c-0.026,-0 -0.048,0.007 -0.066,0.021c-0.017,0.014 -0.031,0.033 -0.04,0.058c-0.009,0.025 -0.013,0.054 -0.013,0.087c-0,0.032 0.004,0.061 0.013,0.086c0.009,0.025 0.023,0.045 0.04,0.059c0.018,0.014 0.04,0.021 0.066,0.021c0.014,0 0.027,-0.002 0.039,-0.006c0.012,-0.004 0.022,-0.011 0.031,-0.019c0.009,-0.008 0.017,-0.018 0.023,-0.03c0.006,-0.012 0.01,-0.025 0.013,-0.04l0.136,0.025c-0.005,0.029 -0.014,0.055 -0.028,0.078c-0.014,0.022 -0.031,0.042 -0.052,0.058c-0.021,0.016 -0.046,0.028 -0.073,0.037c-0.028,0.008 -0.058,0.013 -0.091,0.013Z" style="fill:#f04e4e;fill-rule:nonzero;"/></g><g transform="matrix(384.201,0,0,384.201,2149.88,1188.26)"><path d="M0.309,0.011c-0.055,-0 -0.103,-0.012 -0.144,-0.035c-0.04,-0.022 -0.071,-0.055 -0.093,-0.097c-0.021,-0.042 -0.032,-0.092 -0.032,-0.149c-0,-0.056 0.01,-0.106 0.032,-0.148c0.021,-0.042 0.052,-0.075 0.091,-0.099c0.04,-0.024 0.086,-0.036 0.139,-0.036c0.036,0 0.069,0.006 0.1,0.017c0.031,0.012 0.058,0.029 0.081,0.052c0.024,0.023 0.042,0.051 0.055,0.086c0.013,0.035 0.02,0.075 0.02,0.122l-0,0.041l-0.458,0l-0,-0.092l0.387,0l-0.069,0.025c0,-0.029 -0.004,-0.053 -0.013,-0.074c-0.009,-0.021 -0.021,-0.038 -0.038,-0.049c-0.018,-0.012 -0.039,-0.017 -0.064,-0.017c-0.025,-0 -0.047,0.005 -0.064,0.017c-0.018,0.012 -0.032,0.028 -0.041,0.048c-0.009,0.02 -0.014,0.043 -0.014,0.068l0,0.065c0,0.032 0.006,0.058 0.016,0.08c0.011,0.021 0.026,0.037 0.045,0.048c0.019,0.011 0.041,0.016 0.067,0.016c0.017,0 0.032,-0.002 0.046,-0.007c0.014,-0.005 0.026,-0.012 0.036,-0.022c0.01,-0.009 0.018,-0.021 0.023,-0.035l0.133,0.025c-0.009,0.03 -0.024,0.056 -0.046,0.079c-0.022,0.022 -0.049,0.04 -0.082,0.052c-0.033,0.012 -0.07,0.019 -0.113,0.019Z" style="fill:#f04e4e;fill-rule:nonzero;"/></g><g transform="matrix(384.201,0,0,384.201,2359.54,1188.26)"><path d="M0.066,-0l-0,-0.728l0.284,0c0.055,0 0.102,0.011 0.141,0.032c0.038,0.021 0.068,0.05 0.088,0.087c0.021,0.037 0.031,0.079 0.031,0.127c-0,0.048 -0.011,0.091 -0.031,0.127c-0.021,0.037 -0.051,0.066 -0.09,0.086c-0.039,0.021 -0.087,0.031 -0.143,0.031l-0.182,0l-0,-0.12l0.158,0c0.031,0 0.056,-0.005 0.076,-0.016c0.019,-0.01 0.034,-0.025 0.044,-0.044c0.009,-0.018 0.014,-0.04 0.014,-0.064c0,-0.024 -0.005,-0.046 -0.014,-0.064c-0.01,-0.019 -0.025,-0.033 -0.045,-0.043c-0.019,-0.01 -0.045,-0.016 -0.075,-0.016l-0.107,0l-0,0.605l-0.149,0Z" style="fill:#f04e4e;fill-rule:nonzero;"/></g><g transform="matrix(384.201,0,0,384.201,2584.39,1188.26)"><path d="M0.215,0.011c-0.035,-0 -0.066,-0.007 -0.093,-0.019c-0.028,-0.012 -0.049,-0.03 -0.065,-0.054c-0.016,-0.025 -0.024,-0.055 -0.024,-0.091c0,-0.03 0.006,-0.056 0.017,-0.076c0.011,-0.02 0.026,-0.037 0.046,-0.049c0.019,-0.013 0.041,-0.022 0.066,-0.029c0.024,-0.006 0.05,-0.011 0.077,-0.013c0.032,-0.004 0.057,-0.007 0.076,-0.009c0.02,-0.003 0.034,-0.008 0.043,-0.014c0.009,-0.006 0.014,-0.014 0.014,-0.026l-0,-0.003c-0,-0.015 -0.004,-0.028 -0.01,-0.039c-0.007,-0.011 -0.017,-0.019 -0.029,-0.025c-0.013,-0.006 -0.029,-0.008 -0.047,-0.008c-0.019,-0 -0.035,0.002 -0.049,0.008c-0.014,0.006 -0.025,0.013 -0.034,0.023c-0.009,0.009 -0.016,0.02 -0.02,0.032l-0.134,-0.023c0.009,-0.031 0.025,-0.058 0.047,-0.08c0.021,-0.023 0.049,-0.04 0.081,-0.051c0.032,-0.012 0.069,-0.018 0.109,-0.018c0.03,0 0.058,0.004 0.086,0.011c0.028,0.007 0.052,0.017 0.074,0.032c0.022,0.015 0.04,0.034 0.053,0.058c0.013,0.023 0.019,0.051 0.019,0.084l0,0.368l-0.139,-0l0,-0.076l-0.005,0c-0.008,0.017 -0.02,0.032 -0.035,0.045c-0.014,0.013 -0.032,0.023 -0.053,0.031c-0.02,0.007 -0.044,0.011 -0.071,0.011Zm0.041,-0.103c0.023,-0 0.044,-0.005 0.061,-0.014c0.017,-0.009 0.031,-0.021 0.041,-0.037c0.01,-0.016 0.015,-0.033 0.015,-0.052l-0,-0.059c-0.005,0.003 -0.011,0.006 -0.02,0.008c-0.009,0.003 -0.018,0.005 -0.029,0.007c-0.011,0.002 -0.021,0.004 -0.032,0.006c-0.01,0.001 -0.02,0.003 -0.028,0.004c-0.018,0.002 -0.034,0.006 -0.047,0.012c-0.014,0.006 -0.024,0.014 -0.032,0.023c-0.008,0.01 -0.011,0.022 -0.011,0.037c-0,0.014 0.003,0.026 0.01,0.036c0.008,0.009 0.017,0.017 0.03,0.022c0.012,0.004 0.026,0.007 0.042,0.007Z" style="fill:#f04e4e;fill-rule:nonzero;"/></g><g transform="matrix(384.201,0,0,384.201,2788.24,1188.26)"><path d="M0.306,0.011c-0.054,-0 -0.102,-0.012 -0.142,-0.036c-0.039,-0.023 -0.07,-0.056 -0.092,-0.098c-0.021,-0.042 -0.032,-0.092 -0.032,-0.148c-0,-0.056 0.011,-0.105 0.032,-0.148c0.022,-0.042 0.053,-0.075 0.092,-0.098c0.04,-0.024 0.088,-0.036 0.142,-0.036c0.033,0 0.063,0.004 0.09,0.013c0.027,0.008 0.052,0.02 0.073,0.036c0.021,0.016 0.038,0.035 0.052,0.057c0.014,0.023 0.023,0.048 0.028,0.076l-0.136,0.025c-0.003,-0.014 -0.008,-0.027 -0.014,-0.038c-0.006,-0.011 -0.013,-0.021 -0.022,-0.029c-0.009,-0.008 -0.019,-0.014 -0.031,-0.018c-0.011,-0.004 -0.024,-0.006 -0.038,-0.006c-0.026,-0 -0.048,0.007 -0.066,0.021c-0.017,0.014 -0.031,0.033 -0.04,0.058c-0.009,0.025 -0.013,0.054 -0.013,0.087c-0,0.032 0.004,0.061 0.013,0.086c0.009,0.025 0.023,0.045 0.04,0.059c0.018,0.014 0.04,0.021 0.066,0.021c0.014,0 0.027,-0.002 0.039,-0.006c0.012,-0.004 0.022,-0.011 0.031,-0.019c0.009,-0.008 0.017,-0.018 0.023,-0.03c0.006,-0.012 0.01,-0.025 0.013,-0.04l0.136,0.025c-0.005,0.029 -0.014,0.055 -0.028,0.078c-0.014,0.022 -0.031,0.042 -0.052,0.058c-0.021,0.016 -0.046,0.028 -0.073,0.037c-0.028,0.008 -0.058,0.013 -0.091,0.013Z" style="fill:#f04e4e;fill-rule:nonzero;"/></g><g transform="matrix(384.201,0,0,384.201,2995.08,1188.26)"><path d="M0.195,-0.16l0,-0.176l0.022,-0l0.179,-0.21l0.169,0l-0.236,0.274l-0.034,-0l-0.1,0.112Zm-0.133,0.16l0,-0.728l0.147,0l-0,0.728l-0.147,-0Zm0.341,-0l-0.164,-0.239l0.098,-0.104l0.239,0.343l-0.173,-0Z" style="fill:#f04e4e;fill-rule:nonzero;"/></g><g transform="matrix(384.201,0,0,384.201,3198.74,1188.26)"><path d="M0.279,0.011c-0.044,-0 -0.083,-0.007 -0.116,-0.019c-0.034,-0.013 -0.062,-0.031 -0.083,-0.055c-0.022,-0.024 -0.036,-0.052 -0.042,-0.086l0.136,-0.024c0.008,0.026 0.02,0.045 0.038,0.057c0.018,0.013 0.042,0.019 0.072,0.019c0.027,0 0.05,-0.005 0.066,-0.016c0.016,-0.01 0.024,-0.024 0.024,-0.04c0,-0.014 -0.006,-0.026 -0.017,-0.035c-0.012,-0.009 -0.029,-0.016 -0.054,-0.021l-0.094,-0.02c-0.052,-0.01 -0.091,-0.029 -0.118,-0.055c-0.026,-0.025 -0.039,-0.059 -0.039,-0.1c0,-0.034 0.01,-0.065 0.029,-0.09c0.019,-0.025 0.046,-0.045 0.08,-0.058c0.034,-0.014 0.075,-0.021 0.121,-0.021c0.043,0 0.08,0.006 0.112,0.018c0.031,0.012 0.057,0.029 0.076,0.051c0.02,0.021 0.033,0.047 0.039,0.077l-0.13,0.023c-0.005,-0.019 -0.016,-0.034 -0.032,-0.046c-0.015,-0.012 -0.037,-0.018 -0.063,-0.018c-0.024,0 -0.044,0.005 -0.061,0.016c-0.016,0.01 -0.024,0.023 -0.024,0.04c-0,0.013 0.005,0.025 0.016,0.034c0.01,0.01 0.028,0.017 0.054,0.023l0.098,0.019c0.053,0.011 0.092,0.028 0.118,0.053c0.026,0.024 0.039,0.056 0.039,0.095c-0,0.035 -0.011,0.067 -0.032,0.094c-0.021,0.026 -0.049,0.047 -0.086,0.062c-0.037,0.015 -0.079,0.023 -0.127,0.023Z" style="fill:#f04e4e;fill-rule:nonzero;"/></g><g transform="matrix(384.201,0,0,384.201,3413.91,1188.26)"></g></g><g id="Logo"><path id="Black" d="M348.29,114.733c-6.086,-1.524 -9.7,-7.367 -8.066,-13.041c1.635,-5.673 7.903,-9.042 13.989,-7.519c78.678,19.697 125.4,95.234 104.27,168.577c-1.634,5.674 -7.902,9.043 -13.989,7.519c-6.086,-1.523 -9.7,-7.367 -8.066,-13.04c17.861,-61.996 -21.633,-125.847 -88.138,-142.496Zm-11.414,39.622c-6.087,-1.524 -9.701,-7.367 -8.066,-13.041c1.634,-5.674 7.902,-9.043 13.989,-7.519c55.219,13.824 88.011,66.839 73.181,118.315c-1.634,5.673 -7.903,9.042 -13.989,7.519c-6.086,-1.524 -9.7,-7.367 -8.066,-13.041c11.561,-40.128 -14.002,-81.457 -57.049,-92.233Zm36.029,86.971c-1.635,5.673 -7.903,9.043 -13.989,7.519c-6.087,-1.524 -9.701,-7.367 -8.066,-13.041c5.176,-17.966 -6.269,-36.47 -25.543,-41.295c-6.086,-1.523 -9.7,-7.367 -8.066,-13.04c1.635,-5.674 7.903,-9.043 13.989,-7.519c31.446,7.872 50.12,38.062 41.675,67.376Zm-206.977,-38.373l104.167,-0c33.636,-0 60.944,25.456 60.944,56.812c0,0 0.431,164.788 0,210.301c-0.34,36.047 -38.92,49.311 -60.944,56.812c-28.233,9.616 -60.549,9.324 -60.549,9.324c0,-0 -32.149,0.368 -61.341,-9.324c-22.197,-7.369 -60.604,-19.452 -60.944,-56.812c-0.416,-45.513 -0,-210.301 -0,-210.301c-0,-23.677 15.571,-43.991 37.68,-52.52l6.451,-133.198c0.022,-17.48 28.14,-17.693 28.118,-0.329l6.418,129.235Zm132.114,60.64c-3.414,-9.545 -12.654,-18.171 -22.897,-21.344c-14.815,-4.589 -43.997,-6.19 -65.995,-6.19c-21.999,0 -51.18,1.601 -65.995,6.19c-10.243,3.173 -19.484,11.799 -22.897,21.344c-3.816,10.672 0,42.688 0,42.688c0,11.78 10.26,21.344 22.897,21.344c-0,0 43.996,-5.502 65.995,-5.502c21.998,-0 65.995,5.502 65.995,5.502c12.637,0 22.897,-9.564 22.897,-21.344c-0,0 3.816,-32.016 -0,-42.688Zm-147.032,97.499c0.338,-0.502 -0.212,-1.489 -0.836,-1.434c-16.769,1.45 -29.916,14.619 -29.916,30.627c0,16.977 14.786,30.761 32.998,30.761c18.212,-0 32.998,-13.784 32.998,-30.761c-0,-6.394 -2.098,-12.335 -5.685,-17.257c-0.277,-0.379 -1.369,-0.303 -1.683,0.175c-1.581,2.41 -3.982,5.793 -5.07,6.824c-2.763,2.619 -6.607,4.244 -10.856,4.244c-8.405,-0 -15.229,-6.362 -15.229,-14.198c-0,-2.502 0.695,-4.854 1.916,-6.896c0.248,-0.415 0.768,-1.202 1.363,-2.085Zm128.819,116.041c6.132,-4.816 7.205,-13.24 2.455,-19.262c-4.75,-6.021 -13.697,-7.576 -20.456,-3.555c0,0 -18.423,10.354 -52.339,9.649c-34.683,-0.72 -52.805,-9.977 -52.805,-9.977c-6.832,-3.676 -15.543,-1.879 -20.074,4.14c-4.53,6.02 -3.378,14.267 2.654,19.005c0,-0 29.643,23.382 70.282,23.382c40.64,-0 70.283,-23.382 70.283,-23.382Zm-17.391,-115.791c0.369,-0.557 0.033,-1.73 -0.548,-1.678c-0.504,0.044 -1.005,0.1 -1.502,0.165c-16.011,2.112 -28.342,14.952 -28.342,30.456c0,16.977 14.786,30.761 32.998,30.761c18.212,-0 32.998,-13.784 32.998,-30.761c-0,-6.295 -2.034,-12.152 -5.521,-17.029c-0.36,-0.504 -1.493,-0.696 -1.996,0.081c-1.271,1.962 -2.95,4.154 -3.593,4.989c-2.762,3.592 -7.278,5.933 -12.375,5.933c-8.399,0 -15.218,-6.356 -15.218,-14.186c-0,-2.457 0.672,-4.77 1.854,-6.786c0.213,-0.365 0.675,-1.085 1.245,-1.945Z" style="fill:#f04e4e;"/></g></g></svg>