<?xml version="1.0" encoding="UTF-8" standalone="no"?><!DOCTYPE svg PUBLIC "-//W3C//DTD SVG 1.1//EN" "http://www.w3.org/Graphics/SVG/1.1/DTD/svg11.dtd"><svg width="100%" height="100%" viewBox="0 0 800 719" version="1.1" xmlns="http://www.w3.org/2000/svg" xmlns:xlink="http://www.w3.org/1999/xlink" xml:space="preserve" xmlns:serif="http://www.serif.com/" style="fill-rule:evenodd;clip-rule:evenodd;stroke-linejoin:round;stroke-miterlimit:2;"><rect id="Stacked" x="0" y="0" width="800" height="718.5" style="fill:none;"/><path id="Coral" d="M536.355,96.371c-5.964,-1.601 -9.506,-7.744 -7.904,-13.709c1.601,-5.964 7.744,-9.506 13.709,-7.904c77.103,20.706 122.889,100.115 102.183,177.218c-1.602,5.965 -7.745,9.507 -13.709,7.905c-5.964,-1.602 -9.506,-7.745 -7.905,-13.709c17.503,-65.174 -21.2,-132.298 -86.374,-149.801Zm-11.186,41.653c-5.964,-1.602 -9.506,-7.745 -7.904,-13.709c1.601,-5.965 7.744,-9.506 13.709,-7.905c54.114,14.533 86.249,70.266 71.716,124.38c-1.601,5.965 -7.744,9.507 -13.709,7.905c-5.964,-1.602 -9.506,-7.745 -7.904,-13.709c11.329,-42.186 -13.722,-85.633 -55.908,-96.962Zm35.308,91.43c-1.602,5.964 -7.745,9.506 -13.709,7.904c-5.964,-1.602 -9.506,-7.745 -7.904,-13.709c5.072,-18.887 -6.144,-38.339 -25.032,-43.412c-5.964,-1.602 -9.506,-7.744 -7.904,-13.709c1.602,-5.964 7.745,-9.506 13.709,-7.904c30.816,8.276 49.116,40.013 40.84,70.83Zm-202.834,-40.341l102.082,0c32.963,0 59.725,26.762 59.725,59.725c-0,0 0.421,173.235 -0,221.081c-0.334,37.895 -38.142,51.839 -59.725,59.725c-27.668,10.109 -59.337,9.801 -59.337,9.801c0,0 -31.505,0.387 -60.113,-9.801c-21.753,-7.747 -59.391,-20.449 -59.725,-59.725c-0.406,-47.846 0,-221.081 0,-221.081c0,-24.891 15.26,-46.246 36.926,-55.212l6.323,-140.027c0.021,-18.376 27.576,-18.599 27.555,-0.345l6.289,135.859Zm129.47,63.75c-3.345,-10.035 -12.401,-19.103 -22.439,-22.438c-14.518,-4.825 -43.116,-6.508 -64.674,-6.508c-21.558,0 -50.156,1.683 -64.674,6.508c-10.038,3.335 -19.094,12.403 -22.439,22.438c-3.739,11.219 0,44.876 0,44.876c0,12.384 10.055,22.438 22.439,22.438c-0,-0 43.116,-5.785 64.674,-5.785c21.558,0 64.674,5.785 64.674,5.785c12.384,-0 22.439,-10.054 22.439,-22.438c-0,-0 3.739,-33.657 -0,-44.876Zm-17.849,224.486c6.009,-5.063 7.062,-13.919 2.406,-20.249c-4.655,-6.331 -13.422,-7.965 -20.046,-3.738c0,0 -18.055,10.885 -51.292,10.144c-33.988,-0.757 -51.748,-10.489 -51.748,-10.489c-6.695,-3.864 -15.232,-1.975 -19.672,4.353c-4.439,6.328 -3.31,14.998 2.601,19.979c-0,-0 29.05,24.58 68.875,24.58c39.826,0 68.876,-24.58 68.876,-24.58Zm-126.241,-121.99c0.332,-0.527 -0.207,-1.565 -0.819,-1.508c-16.433,1.525 -29.317,15.369 -29.317,32.198c0,17.847 14.49,32.337 32.338,32.337c17.847,0 32.337,-14.49 32.337,-32.337c-0,-6.722 -2.055,-12.967 -5.571,-18.142c-0.271,-0.398 -1.341,-0.318 -1.649,0.184c-1.549,2.533 -3.903,6.09 -4.968,7.173c-2.708,2.754 -6.476,4.462 -10.639,4.462c-8.237,-0 -14.925,-6.688 -14.925,-14.925c-0,-2.63 0.682,-5.103 1.878,-7.25c0.243,-0.436 0.752,-1.264 1.335,-2.192Zm109.199,0.263c0.362,-0.586 0.031,-1.818 -0.537,-1.764c-0.495,0.047 -0.985,0.105 -1.473,0.174c-15.69,2.22 -27.774,15.718 -27.774,32.017c0,17.847 14.49,32.337 32.337,32.337c17.848,0 32.338,-14.49 32.338,-32.337c-0,-6.618 -1.993,-12.775 -5.41,-17.902c-0.354,-0.53 -1.463,-0.732 -1.957,0.085c-1.246,2.062 -2.891,4.367 -3.521,5.245c-2.707,3.775 -7.132,6.237 -12.128,6.237c-8.23,0 -14.913,-6.682 -14.913,-14.913c0,-2.584 0.659,-5.015 1.817,-7.135c0.209,-0.383 0.662,-1.14 1.221,-2.044Zm-282.776,279.72c0.092,2.736 0.611,5.063 1.556,6.984c1.047,2.127 2.52,3.725 4.418,4.794c1.898,1.069 4.1,1.604 6.606,1.604c1.693,-0 3.231,-0.241 4.615,-0.723c1.385,-0.482 2.575,-1.195 3.571,-2.141c0.996,-0.945 1.755,-2.111 2.275,-3.496l13.118,2.426c-0.874,2.988 -2.389,5.596 -4.545,7.824c-2.155,2.229 -4.857,3.959 -8.103,5.19c-3.246,1.23 -6.967,1.846 -11.162,1.846c-5.52,-0 -10.279,-1.131 -14.277,-3.391c-3.997,-2.261 -7.068,-5.471 -9.212,-9.631c-2.143,-4.159 -3.215,-9.09 -3.215,-14.793c0,-5.564 1.065,-10.445 3.195,-14.642c2.13,-4.198 5.142,-7.473 9.037,-9.824c3.895,-2.352 8.476,-3.527 13.743,-3.527c3.531,-0 6.831,0.563 9.899,1.688c3.067,1.125 5.76,2.822 8.076,5.091c2.317,2.268 4.127,5.119 5.429,8.552c1.301,3.433 1.952,7.465 1.952,12.097l0,4.072l-36.976,0Zm0.067,-9.128l22.945,0c-0.181,-1.81 -0.572,-3.441 -1.173,-4.892c-0.86,-2.078 -2.134,-3.69 -3.822,-4.836c-1.687,-1.146 -3.785,-1.719 -6.293,-1.719c-2.508,-0 -4.635,0.58 -6.383,1.741c-1.746,1.161 -3.076,2.736 -3.988,4.725c-0.69,1.504 -1.119,3.165 -1.286,4.981Zm55.767,-10.515c1.381,-3.405 3.259,-6.123 5.633,-8.152c2.89,-2.47 6.618,-3.705 11.183,-3.705c3.748,-0 7.014,0.815 9.798,2.445c2.785,1.629 4.947,3.965 6.488,7.006c1.54,3.041 2.311,6.677 2.311,10.907l-0,34.393l-14.505,0l-0,-31.865c-0,-3.359 -0.867,-5.993 -2.599,-7.902c-1.732,-1.91 -4.128,-2.865 -7.186,-2.865c-2.04,-0 -3.853,0.447 -5.438,1.34c-1.584,0.894 -2.825,2.181 -3.723,3.863c-0.896,1.681 -1.345,3.721 -1.345,6.121l0,31.308l-14.504,0l0,-54.074l13.695,-0l0.192,11.18Zm68.972,31.005c0.963,-3.885 1.889,-7.539 2.778,-10.962c1.36,-5.234 2.702,-10.051 4.028,-14.452l11.14,-34.764l16.3,0l-24.7,72.067l-19.29,0l-25.251,-72.067l16.411,0l11.528,34.764c1.375,4.401 2.772,9.237 4.191,14.507c0.924,3.43 1.879,7.066 2.865,10.907Zm174.905,-11.362c0.092,2.736 0.61,5.063 1.555,6.984c1.047,2.127 2.52,3.725 4.418,4.794c1.898,1.069 4.1,1.604 6.606,1.604c1.693,-0 3.231,-0.241 4.615,-0.723c1.385,-0.482 2.575,-1.195 3.571,-2.141c0.997,-0.945 1.755,-2.111 2.276,-3.496l13.117,2.426c-0.874,2.988 -2.389,5.596 -4.544,7.824c-2.156,2.229 -4.858,3.959 -8.104,5.19c-3.246,1.23 -6.967,1.846 -11.162,1.846c-5.52,-0 -10.279,-1.131 -14.277,-3.391c-3.997,-2.261 -7.068,-5.471 -9.211,-9.631c-2.144,-4.159 -3.215,-9.09 -3.215,-14.793c-0,-5.564 1.064,-10.445 3.194,-14.642c2.13,-4.198 5.143,-7.473 9.037,-9.824c3.895,-2.352 8.476,-3.527 13.743,-3.527c3.531,-0 6.831,0.563 9.899,1.688c3.067,1.125 5.76,2.822 8.076,5.091c2.317,2.268 4.127,5.119 5.429,8.552c1.302,3.433 1.952,7.465 1.952,12.097l0,4.072l-36.975,0Zm0.066,-9.128l22.945,0c-0.181,-1.81 -0.572,-3.441 -1.173,-4.892c-0.86,-2.078 -2.134,-3.69 -3.822,-4.836c-1.687,-1.146 -3.785,-1.719 -6.293,-1.719c-2.508,-0 -4.635,0.58 -6.382,1.741c-1.747,1.161 -3.077,2.736 -3.988,4.725c-0.69,1.504 -1.119,3.165 -1.287,4.981Zm56.992,8.843l-0,23.536l-14.779,0l-0,-72.067l28.115,0c5.471,0 10.124,1.042 13.961,3.124c3.837,2.082 6.764,4.953 8.782,8.612c2.019,3.659 3.028,7.86 3.028,12.601c0,4.758 -1.022,8.953 -3.067,12.583c-2.045,3.631 -5.012,6.474 -8.902,8.529c-3.89,2.054 -8.605,3.082 -14.146,3.082l-12.992,-0Zm-0,-11.917l10.65,0c3.004,0 5.484,-0.522 7.44,-1.566c1.956,-1.045 3.41,-2.491 4.362,-4.338c0.952,-1.847 1.428,-3.971 1.428,-6.373c0,-2.437 -0.476,-4.567 -1.428,-6.39c-0.952,-1.824 -2.41,-3.241 -4.374,-4.252c-1.963,-1.011 -4.454,-1.517 -7.472,-1.517l-10.606,0l-0,24.436Zm163.25,18.103l-0,17.35l-14.504,0l-0,-72.067l14.504,0l-0,38.782l0.855,-0l17.686,-20.789l16.767,-0l-20.215,23.469l21.255,30.605l-17.101,0l-15.073,-22.052l-4.174,4.702Zm-628.984,18.317c-6.368,0 -12.093,-1.452 -17.175,-4.356c-5.082,-2.904 -9.096,-7.113 -12.043,-12.625c-2.947,-5.513 -4.421,-12.17 -4.421,-19.971c0,-7.851 1.474,-14.537 4.421,-20.058c2.947,-5.521 6.961,-9.733 12.043,-12.636c5.082,-2.903 10.807,-4.355 17.175,-4.355c6.367,0 12.083,1.452 17.149,4.355c5.066,2.903 9.073,7.115 12.021,12.636c2.949,5.521 4.423,12.207 4.423,20.058c-0,7.819 -1.474,14.485 -4.423,19.998c-2.948,5.512 -6.955,9.716 -12.021,12.611c-5.066,2.896 -10.782,4.343 -17.149,4.343Zm-0,-13.109c3.731,-0 6.99,-0.914 9.777,-2.742c2.788,-1.828 4.957,-4.519 6.508,-8.071c1.551,-3.553 2.327,-7.896 2.327,-13.03c-0,-5.181 -0.776,-9.552 -2.327,-13.113c-1.551,-3.561 -3.72,-6.256 -6.508,-8.084c-2.787,-1.828 -6.046,-2.742 -9.777,-2.742c-3.729,-0 -6.991,0.918 -9.785,2.754c-2.795,1.835 -4.973,4.533 -6.533,8.094c-1.56,3.561 -2.34,7.925 -2.34,13.091c0,5.134 0.78,9.473 2.34,13.018c1.56,3.545 3.738,6.236 6.533,8.072c2.794,1.835 6.056,2.753 9.785,2.753Zm39.368,32.359l0,-74.291l14.266,-0l0,9.102l0.707,-0c0.665,-1.438 1.614,-2.912 2.85,-4.423c1.236,-1.51 2.872,-2.78 4.91,-3.811c2.038,-1.03 4.588,-1.545 7.649,-1.545c4.01,-0 7.671,1.033 10.983,3.098c3.312,2.066 5.965,5.16 7.959,9.284c1.995,4.123 2.992,9.265 2.992,15.425c-0,6 -0.967,11.071 -2.902,15.211c-1.935,4.139 -4.563,7.279 -7.884,9.421c-3.321,2.141 -7.064,3.211 -11.23,3.211c-2.93,0 -5.413,-0.497 -7.448,-1.491c-2.035,-0.994 -3.686,-2.223 -4.954,-3.688c-1.268,-1.464 -2.243,-2.923 -2.925,-4.375l-0.469,0l0,28.872l-14.504,0Zm25.834,-30.944c2.532,0 4.657,-0.693 6.373,-2.08c1.716,-1.386 3.015,-3.306 3.899,-5.758c0.883,-2.453 1.325,-5.261 1.325,-8.424c0,-3.166 -0.438,-5.96 -1.314,-8.382c-0.876,-2.423 -2.172,-4.321 -3.888,-5.694c-1.716,-1.373 -3.848,-2.06 -6.395,-2.06c-2.486,-0 -4.596,0.664 -6.33,1.993c-1.735,1.328 -3.053,3.197 -3.954,5.605c-0.9,2.408 -1.351,5.254 -1.351,8.538c0,3.25 0.454,6.093 1.362,8.53c0.908,2.436 2.234,4.334 3.976,5.693c1.742,1.36 3.841,2.039 6.297,2.039Zm224.55,11.784c-5.424,-0 -10.116,-1.166 -14.078,-3.496c-3.962,-2.33 -7.014,-5.587 -9.156,-9.77c-2.142,-4.183 -3.214,-9.048 -3.214,-14.594c0,-5.591 1.072,-10.481 3.214,-14.672c2.142,-4.19 5.194,-7.45 9.156,-9.78c3.962,-2.331 8.654,-3.496 14.078,-3.496c5.438,-0 10.133,1.165 14.085,3.496c3.952,2.33 6.999,5.59 9.141,9.78c2.142,4.191 3.213,9.081 3.213,14.672c0,5.546 -1.071,10.411 -3.213,14.594c-2.142,4.183 -5.189,7.44 -9.141,9.77c-3.952,2.33 -8.647,3.496 -14.085,3.496Zm0,-11.418c2.582,-0 4.74,-0.717 6.476,-2.152c1.736,-1.435 3.037,-3.398 3.904,-5.888c0.868,-2.489 1.301,-5.308 1.301,-8.454c0,-3.178 -0.433,-6.007 -1.301,-8.486c-0.867,-2.479 -2.168,-4.431 -3.904,-5.855c-1.736,-1.425 -3.894,-2.138 -6.476,-2.138c-2.584,0 -4.741,0.713 -6.471,2.138c-1.729,1.424 -3.028,3.372 -3.895,5.844c-0.867,2.471 -1.301,5.303 -1.301,8.497c0,3.146 0.434,5.965 1.301,8.454c0.867,2.49 2.166,4.453 3.895,5.888c1.73,1.435 3.887,2.152 6.471,2.152Zm31.595,10.361l0,-54.074l14.504,-0l0,54.074l-14.504,0Zm7.266,-61.123c-2.185,0 -4.056,-0.73 -5.615,-2.19c-1.559,-1.461 -2.338,-3.213 -2.338,-5.258c0,-2.086 0.779,-3.851 2.338,-5.293c1.559,-1.444 3.43,-2.166 5.615,-2.166c2.194,0 4.072,0.721 5.632,2.163c1.562,1.441 2.342,3.206 2.342,5.295c0,2.047 -0.78,3.8 -2.342,5.26c-1.56,1.459 -3.438,2.189 -5.632,2.189Zm38.799,62.18c-5.423,-0 -10.111,-1.166 -14.064,-3.496c-3.953,-2.33 -7.001,-5.587 -9.143,-9.77c-2.143,-4.183 -3.214,-9.048 -3.214,-14.594c0,-5.591 1.071,-10.481 3.214,-14.672c2.142,-4.19 5.19,-7.45 9.143,-9.78c3.953,-2.331 8.641,-3.496 14.064,-3.496c3.222,-0 6.185,0.417 8.889,1.251c2.705,0.833 5.104,2.026 7.196,3.579c2.093,1.552 3.815,3.438 5.167,5.658c1.351,2.22 2.285,4.715 2.8,7.487l-13.486,2.526c-0.3,-1.403 -0.753,-2.664 -1.359,-3.781c-0.606,-1.117 -1.346,-2.073 -2.221,-2.866c-0.875,-0.794 -1.884,-1.398 -3.028,-1.813c-1.143,-0.416 -2.411,-0.624 -3.801,-0.624c-2.584,0 -4.749,0.695 -6.496,2.085c-1.747,1.39 -3.067,3.321 -3.961,5.792c-0.893,2.472 -1.34,5.339 -1.34,8.602c-0,3.216 0.447,6.065 1.34,8.546c0.894,2.481 2.214,4.426 3.961,5.835c1.747,1.409 3.912,2.113 6.496,2.113c1.406,-0 2.688,-0.216 3.846,-0.647c1.159,-0.432 2.187,-1.056 3.085,-1.873c0.899,-0.817 1.651,-1.812 2.256,-2.985c0.606,-1.173 1.051,-2.485 1.333,-3.936l13.465,2.5c-0.501,2.854 -1.431,5.407 -2.79,7.659c-1.359,2.251 -3.084,4.177 -5.176,5.777c-2.091,1.599 -4.501,2.819 -7.229,3.661c-2.728,0.841 -5.71,1.262 -8.947,1.262Zm156.295,-0.008c-3.435,0 -6.513,-0.606 -9.233,-1.817c-2.719,-1.211 -4.857,-3.015 -6.414,-5.411c-1.558,-2.396 -2.336,-5.376 -2.336,-8.94c-0,-3.026 0.551,-5.55 1.655,-7.572c1.103,-2.022 2.613,-3.65 4.53,-4.884c1.917,-1.234 4.095,-2.174 6.534,-2.817c2.44,-0.644 4.996,-1.093 7.667,-1.346c3.12,-0.314 5.639,-0.61 7.557,-0.888c1.918,-0.279 3.326,-0.713 4.222,-1.305c0.897,-0.591 1.345,-1.47 1.345,-2.635l-0,-0.238c-0,-1.543 -0.328,-2.849 -0.984,-3.916c-0.655,-1.068 -1.612,-1.886 -2.871,-2.454c-1.259,-0.569 -2.806,-0.853 -4.642,-0.853c-1.849,-0 -3.465,0.281 -4.85,0.843c-1.385,0.562 -2.52,1.313 -3.403,2.253c-0.884,0.939 -1.52,1.994 -1.909,3.164l-13.304,-2.208c0.916,-3.15 2.456,-5.821 4.618,-8.015c2.162,-2.193 4.85,-3.869 8.061,-5.025c3.212,-1.158 6.823,-1.736 10.832,-1.736c2.903,-0 5.724,0.344 8.465,1.031c2.741,0.688 5.201,1.764 7.38,3.228c2.18,1.464 3.91,3.357 5.19,5.679c1.281,2.323 1.921,5.126 1.921,8.409l0,36.404l-13.758,0l-0,-7.508l-0.477,-0c-0.873,1.675 -2.035,3.156 -3.485,4.442c-1.45,1.286 -3.194,2.293 -5.233,3.022c-2.038,0.729 -4.398,1.093 -7.078,1.093Zm4.086,-10.172c2.283,-0 4.29,-0.455 6.018,-1.363c1.729,-0.91 3.082,-2.137 4.06,-3.682c0.978,-1.546 1.468,-3.267 1.468,-5.164l-0,-5.85c-0.442,0.297 -1.094,0.576 -1.957,0.836c-0.862,0.26 -1.824,0.493 -2.885,0.698c-1.062,0.206 -2.11,0.385 -3.144,0.536c-1.034,0.151 -1.953,0.284 -2.757,0.398c-1.783,0.241 -3.35,0.649 -4.701,1.226c-1.352,0.576 -2.401,1.347 -3.15,2.313c-0.748,0.965 -1.122,2.175 -1.122,3.629c0,1.4 0.353,2.576 1.059,3.529c0.706,0.953 1.671,1.673 2.895,2.162c1.224,0.488 2.63,0.732 4.216,0.732Zm57.532,10.18c-5.424,-0 -10.112,-1.166 -14.065,-3.496c-3.953,-2.33 -7.001,-5.587 -9.143,-9.77c-2.142,-4.183 -3.214,-9.048 -3.214,-14.594c0,-5.591 1.072,-10.481 3.214,-14.672c2.142,-4.19 5.19,-7.45 9.143,-9.78c3.953,-2.331 8.641,-3.496 14.065,-3.496c3.221,-0 6.184,0.417 8.888,1.251c2.705,0.833 5.104,2.026 7.197,3.579c2.092,1.552 3.815,3.438 5.166,5.658c1.352,2.22 2.285,4.715 2.8,7.487l-13.486,2.526c-0.3,-1.403 -0.753,-2.664 -1.359,-3.781c-0.606,-1.117 -1.346,-2.073 -2.221,-2.866c-0.875,-0.794 -1.884,-1.398 -3.028,-1.813c-1.143,-0.416 -2.41,-0.624 -3.801,-0.624c-2.584,0 -4.749,0.695 -6.496,2.085c-1.747,1.39 -3.067,3.321 -3.961,5.792c-0.893,2.472 -1.34,5.339 -1.34,8.602c0,3.216 0.447,6.065 1.34,8.546c0.894,2.481 2.214,4.426 3.961,5.835c1.747,1.409 3.912,2.113 6.496,2.113c1.406,-0 2.688,-0.216 3.846,-0.647c1.159,-0.432 2.187,-1.056 3.086,-1.873c0.898,-0.817 1.65,-1.812 2.255,-2.985c0.607,-1.173 1.051,-2.485 1.333,-3.936l13.465,2.5c-0.501,2.854 -1.43,5.407 -2.79,7.659c-1.359,2.251 -3.084,4.177 -5.176,5.777c-2.091,1.599 -4.501,2.819 -7.229,3.661c-2.728,0.841 -5.71,1.262 -8.946,1.262Zm103.149,-0c-4.352,-0 -8.207,-0.623 -11.563,-1.869c-3.356,-1.246 -6.095,-3.05 -8.218,-5.413c-2.123,-2.363 -3.498,-5.215 -4.125,-8.554l13.52,-2.322c0.705,2.513 1.942,4.398 3.712,5.654c1.77,1.256 4.136,1.884 7.1,1.884c2.762,0 4.946,-0.527 6.551,-1.582c1.606,-1.055 2.409,-2.391 2.409,-4.007c-0,-1.417 -0.571,-2.576 -1.711,-3.478c-1.14,-0.902 -2.901,-1.598 -5.281,-2.089l-9.309,-1.92c-5.215,-1.073 -9.112,-2.888 -11.689,-5.445c-2.578,-2.556 -3.867,-5.859 -3.867,-9.907c0,-3.461 0.945,-6.442 2.834,-8.942c1.89,-2.501 4.533,-4.429 7.931,-5.785c3.398,-1.355 7.372,-2.033 11.923,-2.033c4.283,-0 7.988,0.591 11.115,1.773c3.126,1.182 5.652,2.848 7.576,5c1.925,2.15 3.22,4.7 3.887,7.648l-12.872,2.266c-0.568,-1.847 -1.632,-3.357 -3.191,-4.527c-1.56,-1.171 -3.654,-1.757 -6.284,-1.757c-2.388,0 -4.389,0.502 -6.002,1.507c-1.614,1.005 -2.42,2.331 -2.42,3.978c-0,1.355 0.521,2.502 1.563,3.442c1.042,0.939 2.838,1.675 5.388,2.207l9.715,1.935c5.232,1.057 9.125,2.789 11.679,5.197c2.554,2.408 3.832,5.545 3.832,9.41c-0,3.543 -1.034,6.644 -3.103,9.302c-2.068,2.658 -4.919,4.727 -8.555,6.207c-3.634,1.48 -7.816,2.22 -12.545,2.22Z" style="fill:#f04e4e;"/></svg>